<svg id="visual" viewBox="0 0 900 600" width="900" height="600" xmlns="http://www.w3.org/2000/svg" xmlns:xlink="http://www.w3.org/1999/xlink" version="1.1"><rect x="0" y="0" width="900" height="600" fill="#ffffff"></rect><defs><linearGradient id="grad1_0" x1="33.3%" y1="0%" x2="100%" y2="100%"><stop offset="20%" stop-color="#ffffff" stop-opacity="1"></stop><stop offset="80%" stop-color="#ffffff" stop-opacity="1"></stop></linearGradient></defs><defs><linearGradient id="grad2_0" x1="0%" y1="0%" x2="66.7%" y2="100%"><stop offset="20%" stop-color="#ffffff" stop-opacity="1"></stop><stop offset="80%" stop-color="#ffffff" stop-opacity="1"></stop></linearGradient></defs><g transform="translate(900, 0)"><path d="M0 324.5C-49.4 327.2 -98.9 329.9 -124.2 299.8C-149.5 269.7 -150.6 206.8 -173.2 173.2C-195.9 139.7 -240.1 135.4 -268.8 111.4C-297.6 87.4 -311.1 43.7 -324.5 0L0 0Z" fill="#FBAE3C"></path></g><g transform="translate(0, 600)"><path d="M0 -324.5C35.3 -306.2 70.6 -287.8 114.4 -276.2C158.2 -264.6 210.6 -259.7 229.5 -229.5C248.3 -199.2 233.6 -143.5 243.9 -101C254.2 -58.6 289.3 -29.3 324.5 0L0 0Z" fill="#FBAE3C"></path></g></svg>